<?xml version="1.0" encoding="utf-8" standalone="no"?>
<!DOCTYPE svg PUBLIC "-//W3C//DTD SVG 1.1//EN"
  "http://www.w3.org/Graphics/SVG/1.1/DTD/svg11.dtd">
<svg xmlns:xlink="http://www.w3.org/1999/xlink" width="438.181071pt" height="341.48425pt" viewBox="0 0 438.181071 341.48425" xmlns="http://www.w3.org/2000/svg" version="1.1">
 <metadata>
  <rdf:RDF xmlns:dc="http://purl.org/dc/elements/1.1/" xmlns:cc="http://creativecommons.org/ns#" xmlns:rdf="http://www.w3.org/1999/02/22-rdf-syntax-ns#">
   <cc:Work>
    <dc:type rdf:resource="http://purl.org/dc/dcmitype/StillImage"/>
    <dc:format>image/svg+xml</dc:format>
    <dc:creator>
     <cc:Agent>
      <dc:title>Matplotlib v3.10.9, https://matplotlib.org/</dc:title>
     </cc:Agent>
    </dc:creator>
   </cc:Work>
  </rdf:RDF>
 </metadata>
 <defs>
  <style type="text/css">*{stroke-linejoin: round; stroke-linecap: butt}</style>
 </defs>
 <g id="figure_1">
  <g id="patch_1">
   <path d="M 0 341.48425
L 438.181071 341.48425
L 438.181071 -0
L 0 -0
z
" style="fill: #ffffff"/>
  </g>
  <g id="axes_1">
   <g id="patch_2">
    <path d="M 51.378125 303.928
L 430.981071 303.928
L 430.981071 50.928
L 51.378125 50.928
z
" style="fill: #ffffff"/>
   </g>
   <g id="matplotlib.axis_1">
    <g id="xtick_1">
     <g id="line2d_1">
      <path d="M 68.632804 303.928
L 68.632804 50.928
" clip-path="url(#pdee735c823)" style="fill: none; stroke: #b0b0b0; stroke-opacity: 0.22; stroke-width: 0.8; stroke-linecap: square"/>
     </g>
     <g id="line2d_2">
      <defs>
       <path id="m1e08e577a5" d="M 0 0
L 0 3.5
" style="stroke: #000000; stroke-width: 0.8"/>
      </defs>
      <g>
       <use xlink:href="#m1e08e577a5" x="68.632804" y="303.928" style="stroke: #000000; stroke-width: 0.8"/>
      </g>
     </g>
     <g id="text_1">
      <!-- 0.00 -->
      <g transform="translate(57.499992 318.526437) scale(0.1 -0.1)">
       <defs>
        <path id="DejaVuSans-30" d="M 2034 4250
Q 1547 4250 1301 3770
Q 1056 3291 1056 2328
Q 1056 1369 1301 889
Q 1547 409 2034 409
Q 2525 409 2770 889
Q 3016 1369 3016 2328
Q 3016 3291 2770 3770
Q 2525 4250 2034 4250
z
M 2034 4750
Q 2819 4750 3233 4129
Q 3647 3509 3647 2328
Q 3647 1150 3233 529
Q 2819 -91 2034 -91
Q 1250 -91 836 529
Q 422 1150 422 2328
Q 422 3509 836 4129
Q 1250 4750 2034 4750
z
" transform="scale(0.015625)"/>
        <path id="DejaVuSans-2e" d="M 684 794
L 1344 794
L 1344 0
L 684 0
L 684 794
z
" transform="scale(0.015625)"/>
       </defs>
       <use xlink:href="#DejaVuSans-30"/>
       <use xlink:href="#DejaVuSans-2e" transform="translate(63.623047 0)"/>
       <use xlink:href="#DejaVuSans-30" transform="translate(95.410156 0)"/>
       <use xlink:href="#DejaVuSans-30" transform="translate(159.033203 0)"/>
      </g>
     </g>
    </g>
    <g id="xtick_2">
     <g id="line2d_3">
      <path d="M 122.141494 303.928
L 122.141494 50.928
" clip-path="url(#pdee735c823)" style="fill: none; stroke: #b0b0b0; stroke-opacity: 0.22; stroke-width: 0.8; stroke-linecap: square"/>
     </g>
     <g id="line2d_4">
      <g>
       <use xlink:href="#m1e08e577a5" x="122.141494" y="303.928" style="stroke: #000000; stroke-width: 0.8"/>
      </g>
     </g>
     <g id="text_2">
      <!-- 0.05 -->
      <g transform="translate(111.008681 318.526437) scale(0.1 -0.1)">
       <defs>
        <path id="DejaVuSans-35" d="M 691 4666
L 3169 4666
L 3169 4134
L 1269 4134
L 1269 2991
Q 1406 3038 1543 3061
Q 1681 3084 1819 3084
Q 2600 3084 3056 2656
Q 3513 2228 3513 1497
Q 3513 744 3044 326
Q 2575 -91 1722 -91
Q 1428 -91 1123 -41
Q 819 9 494 109
L 494 744
Q 775 591 1075 516
Q 1375 441 1709 441
Q 2250 441 2565 725
Q 2881 1009 2881 1497
Q 2881 1984 2565 2268
Q 2250 2553 1709 2553
Q 1456 2553 1204 2497
Q 953 2441 691 2322
L 691 4666
z
" transform="scale(0.015625)"/>
       </defs>
       <use xlink:href="#DejaVuSans-30"/>
       <use xlink:href="#DejaVuSans-2e" transform="translate(63.623047 0)"/>
       <use xlink:href="#DejaVuSans-30" transform="translate(95.410156 0)"/>
       <use xlink:href="#DejaVuSans-35" transform="translate(159.033203 0)"/>
      </g>
     </g>
    </g>
    <g id="xtick_3">
     <g id="line2d_5">
      <path d="M 175.650184 303.928
L 175.650184 50.928
" clip-path="url(#pdee735c823)" style="fill: none; stroke: #b0b0b0; stroke-opacity: 0.22; stroke-width: 0.8; stroke-linecap: square"/>
     </g>
     <g id="line2d_6">
      <g>
       <use xlink:href="#m1e08e577a5" x="175.650184" y="303.928" style="stroke: #000000; stroke-width: 0.8"/>
      </g>
     </g>
     <g id="text_3">
      <!-- 0.10 -->
      <g transform="translate(164.517371 318.526437) scale(0.1 -0.1)">
       <defs>
        <path id="DejaVuSans-31" d="M 794 531
L 1825 531
L 1825 4091
L 703 3866
L 703 4441
L 1819 4666
L 2450 4666
L 2450 531
L 3481 531
L 3481 0
L 794 0
L 794 531
z
" transform="scale(0.015625)"/>
       </defs>
       <use xlink:href="#DejaVuSans-30"/>
       <use xlink:href="#DejaVuSans-2e" transform="translate(63.623047 0)"/>
       <use xlink:href="#DejaVuSans-31" transform="translate(95.410156 0)"/>
       <use xlink:href="#DejaVuSans-30" transform="translate(159.033203 0)"/>
      </g>
     </g>
    </g>
    <g id="xtick_4">
     <g id="line2d_7">
      <path d="M 229.158873 303.928
L 229.158873 50.928
" clip-path="url(#pdee735c823)" style="fill: none; stroke: #b0b0b0; stroke-opacity: 0.22; stroke-width: 0.8; stroke-linecap: square"/>
     </g>
     <g id="line2d_8">
      <g>
       <use xlink:href="#m1e08e577a5" x="229.158873" y="303.928" style="stroke: #000000; stroke-width: 0.8"/>
      </g>
     </g>
     <g id="text_4">
      <!-- 0.15 -->
      <g transform="translate(218.026061 318.526437) scale(0.1 -0.1)">
       <use xlink:href="#DejaVuSans-30"/>
       <use xlink:href="#DejaVuSans-2e" transform="translate(63.623047 0)"/>
       <use xlink:href="#DejaVuSans-31" transform="translate(95.410156 0)"/>
       <use xlink:href="#DejaVuSans-35" transform="translate(159.033203 0)"/>
      </g>
     </g>
    </g>
    <g id="xtick_5">
     <g id="line2d_9">
      <path d="M 282.667563 303.928
L 282.667563 50.928
" clip-path="url(#pdee735c823)" style="fill: none; stroke: #b0b0b0; stroke-opacity: 0.22; stroke-width: 0.8; stroke-linecap: square"/>
     </g>
     <g id="line2d_10">
      <g>
       <use xlink:href="#m1e08e577a5" x="282.667563" y="303.928" style="stroke: #000000; stroke-width: 0.8"/>
      </g>
     </g>
     <g id="text_5">
      <!-- 0.20 -->
      <g transform="translate(271.53475 318.526437) scale(0.1 -0.1)">
       <defs>
        <path id="DejaVuSans-32" d="M 1228 531
L 3431 531
L 3431 0
L 469 0
L 469 531
Q 828 903 1448 1529
Q 2069 2156 2228 2338
Q 2531 2678 2651 2914
Q 2772 3150 2772 3378
Q 2772 3750 2511 3984
Q 2250 4219 1831 4219
Q 1534 4219 1204 4116
Q 875 4013 500 3803
L 500 4441
Q 881 4594 1212 4672
Q 1544 4750 1819 4750
Q 2544 4750 2975 4387
Q 3406 4025 3406 3419
Q 3406 3131 3298 2873
Q 3191 2616 2906 2266
Q 2828 2175 2409 1742
Q 1991 1309 1228 531
z
" transform="scale(0.015625)"/>
       </defs>
       <use xlink:href="#DejaVuSans-30"/>
       <use xlink:href="#DejaVuSans-2e" transform="translate(63.623047 0)"/>
       <use xlink:href="#DejaVuSans-32" transform="translate(95.410156 0)"/>
       <use xlink:href="#DejaVuSans-30" transform="translate(159.033203 0)"/>
      </g>
     </g>
    </g>
    <g id="xtick_6">
     <g id="line2d_11">
      <path d="M 336.176253 303.928
L 336.176253 50.928
" clip-path="url(#pdee735c823)" style="fill: none; stroke: #b0b0b0; stroke-opacity: 0.22; stroke-width: 0.8; stroke-linecap: square"/>
     </g>
     <g id="line2d_12">
      <g>
       <use xlink:href="#m1e08e577a5" x="336.176253" y="303.928" style="stroke: #000000; stroke-width: 0.8"/>
      </g>
     </g>
     <g id="text_6">
      <!-- 0.25 -->
      <g transform="translate(325.04344 318.526437) scale(0.1 -0.1)">
       <use xlink:href="#DejaVuSans-30"/>
       <use xlink:href="#DejaVuSans-2e" transform="translate(63.623047 0)"/>
       <use xlink:href="#DejaVuSans-32" transform="translate(95.410156 0)"/>
       <use xlink:href="#DejaVuSans-35" transform="translate(159.033203 0)"/>
      </g>
     </g>
    </g>
    <g id="xtick_7">
     <g id="line2d_13">
      <path d="M 389.684942 303.928
L 389.684942 50.928
" clip-path="url(#pdee735c823)" style="fill: none; stroke: #b0b0b0; stroke-opacity: 0.22; stroke-width: 0.8; stroke-linecap: square"/>
     </g>
     <g id="line2d_14">
      <g>
       <use xlink:href="#m1e08e577a5" x="389.684942" y="303.928" style="stroke: #000000; stroke-width: 0.8"/>
      </g>
     </g>
     <g id="text_7">
      <!-- 0.30 -->
      <g transform="translate(378.55213 318.526437) scale(0.1 -0.1)">
       <defs>
        <path id="DejaVuSans-33" d="M 2597 2516
Q 3050 2419 3304 2112
Q 3559 1806 3559 1356
Q 3559 666 3084 287
Q 2609 -91 1734 -91
Q 1441 -91 1130 -33
Q 819 25 488 141
L 488 750
Q 750 597 1062 519
Q 1375 441 1716 441
Q 2309 441 2620 675
Q 2931 909 2931 1356
Q 2931 1769 2642 2001
Q 2353 2234 1838 2234
L 1294 2234
L 1294 2753
L 1863 2753
Q 2328 2753 2575 2939
Q 2822 3125 2822 3475
Q 2822 3834 2567 4026
Q 2313 4219 1838 4219
Q 1578 4219 1281 4162
Q 984 4106 628 3988
L 628 4550
Q 988 4650 1302 4700
Q 1616 4750 1894 4750
Q 2613 4750 3031 4423
Q 3450 4097 3450 3541
Q 3450 3153 3228 2886
Q 3006 2619 2597 2516
z
" transform="scale(0.015625)"/>
       </defs>
       <use xlink:href="#DejaVuSans-30"/>
       <use xlink:href="#DejaVuSans-2e" transform="translate(63.623047 0)"/>
       <use xlink:href="#DejaVuSans-33" transform="translate(95.410156 0)"/>
       <use xlink:href="#DejaVuSans-30" transform="translate(159.033203 0)"/>
      </g>
     </g>
    </g>
    <g id="text_8">
     <!-- AP-MI -->
     <g transform="translate(227.263973 332.204562) scale(0.1 -0.1)">
      <defs>
       <path id="DejaVuSans-41" d="M 2188 4044
L 1331 1722
L 3047 1722
L 2188 4044
z
M 1831 4666
L 2547 4666
L 4325 0
L 3669 0
L 3244 1197
L 1141 1197
L 716 0
L 50 0
L 1831 4666
z
" transform="scale(0.015625)"/>
       <path id="DejaVuSans-50" d="M 1259 4147
L 1259 2394
L 2053 2394
Q 2494 2394 2734 2622
Q 2975 2850 2975 3272
Q 2975 3691 2734 3919
Q 2494 4147 2053 4147
L 1259 4147
z
M 628 4666
L 2053 4666
Q 2838 4666 3239 4311
Q 3641 3956 3641 3272
Q 3641 2581 3239 2228
Q 2838 1875 2053 1875
L 1259 1875
L 1259 0
L 628 0
L 628 4666
z
" transform="scale(0.015625)"/>
       <path id="DejaVuSans-2d" d="M 313 2009
L 1997 2009
L 1997 1497
L 313 1497
L 313 2009
z
" transform="scale(0.015625)"/>
       <path id="DejaVuSans-4d" d="M 628 4666
L 1569 4666
L 2759 1491
L 3956 4666
L 4897 4666
L 4897 0
L 4281 0
L 4281 4097
L 3078 897
L 2444 897
L 1241 4097
L 1241 0
L 628 0
L 628 4666
z
" transform="scale(0.015625)"/>
       <path id="DejaVuSans-49" d="M 628 4666
L 1259 4666
L 1259 0
L 628 0
L 628 4666
z
" transform="scale(0.015625)"/>
      </defs>
      <use xlink:href="#DejaVuSans-41"/>
      <use xlink:href="#DejaVuSans-50" transform="translate(68.408203 0)"/>
      <use xlink:href="#DejaVuSans-2d" transform="translate(126.460938 0)"/>
      <use xlink:href="#DejaVuSans-4d" transform="translate(162.544922 0)"/>
      <use xlink:href="#DejaVuSans-49" transform="translate(248.824219 0)"/>
     </g>
    </g>
   </g>
   <g id="matplotlib.axis_2">
    <g id="ytick_1">
     <g id="line2d_15">
      <path d="M 51.378125 289.56087
L 430.981071 289.56087
" clip-path="url(#pdee735c823)" style="fill: none; stroke: #b0b0b0; stroke-opacity: 0.22; stroke-width: 0.8; stroke-linecap: square"/>
     </g>
     <g id="line2d_16">
      <defs>
       <path id="mcaf33d2c7f" d="M 0 0
L -3.5 0
" style="stroke: #000000; stroke-width: 0.8"/>
      </defs>
      <g>
       <use xlink:href="#mcaf33d2c7f" x="51.378125" y="289.56087" style="stroke: #000000; stroke-width: 0.8"/>
      </g>
     </g>
     <g id="text_9">
      <!-- $\mathdefault{10^{-5}}$ -->
      <g transform="translate(20.878125 293.360088) scale(0.1 -0.1)">
       <defs>
        <path id="DejaVuSans-2212" d="M 678 2272
L 4684 2272
L 4684 1741
L 678 1741
L 678 2272
z
" transform="scale(0.015625)"/>
       </defs>
       <use xlink:href="#DejaVuSans-31" transform="translate(0 0.684375)"/>
       <use xlink:href="#DejaVuSans-30" transform="translate(63.623047 0.684375)"/>
       <use xlink:href="#DejaVuSans-2212" transform="translate(128.203125 38.965625) scale(0.7)"/>
       <use xlink:href="#DejaVuSans-35" transform="translate(186.855469 38.965625) scale(0.7)"/>
      </g>
     </g>
    </g>
    <g id="ytick_2">
     <g id="line2d_17">
      <path d="M 51.378125 241.834296
L 430.981071 241.834296
" clip-path="url(#pdee735c823)" style="fill: none; stroke: #b0b0b0; stroke-opacity: 0.22; stroke-width: 0.8; stroke-linecap: square"/>
     </g>
     <g id="line2d_18">
      <g>
       <use xlink:href="#mcaf33d2c7f" x="51.378125" y="241.834296" style="stroke: #000000; stroke-width: 0.8"/>
      </g>
     </g>
     <g id="text_10">
      <!-- $\mathdefault{10^{-4}}$ -->
      <g transform="translate(20.878125 245.633514) scale(0.1 -0.1)">
       <defs>
        <path id="DejaVuSans-34" d="M 2419 4116
L 825 1625
L 2419 1625
L 2419 4116
z
M 2253 4666
L 3047 4666
L 3047 1625
L 3713 1625
L 3713 1100
L 3047 1100
L 3047 0
L 2419 0
L 2419 1100
L 313 1100
L 313 1709
L 2253 4666
z
" transform="scale(0.015625)"/>
       </defs>
       <use xlink:href="#DejaVuSans-31" transform="translate(0 0.684375)"/>
       <use xlink:href="#DejaVuSans-30" transform="translate(63.623047 0.684375)"/>
       <use xlink:href="#DejaVuSans-2212" transform="translate(128.203125 38.965625) scale(0.7)"/>
       <use xlink:href="#DejaVuSans-34" transform="translate(186.855469 38.965625) scale(0.7)"/>
      </g>
     </g>
    </g>
    <g id="ytick_3">
     <g id="line2d_19">
      <path d="M 51.378125 194.107722
L 430.981071 194.107722
" clip-path="url(#pdee735c823)" style="fill: none; stroke: #b0b0b0; stroke-opacity: 0.22; stroke-width: 0.8; stroke-linecap: square"/>
     </g>
     <g id="line2d_20">
      <g>
       <use xlink:href="#mcaf33d2c7f" x="51.378125" y="194.107722" style="stroke: #000000; stroke-width: 0.8"/>
      </g>
     </g>
     <g id="text_11">
      <!-- $\mathdefault{10^{-3}}$ -->
      <g transform="translate(20.878125 197.906941) scale(0.1 -0.1)">
       <use xlink:href="#DejaVuSans-31" transform="translate(0 0.765625)"/>
       <use xlink:href="#DejaVuSans-30" transform="translate(63.623047 0.765625)"/>
       <use xlink:href="#DejaVuSans-2212" transform="translate(128.203125 39.046875) scale(0.7)"/>
       <use xlink:href="#DejaVuSans-33" transform="translate(186.855469 39.046875) scale(0.7)"/>
      </g>
     </g>
    </g>
    <g id="ytick_4">
     <g id="line2d_21">
      <path d="M 51.378125 146.381148
L 430.981071 146.381148
" clip-path="url(#pdee735c823)" style="fill: none; stroke: #b0b0b0; stroke-opacity: 0.22; stroke-width: 0.8; stroke-linecap: square"/>
     </g>
     <g id="line2d_22">
      <g>
       <use xlink:href="#mcaf33d2c7f" x="51.378125" y="146.381148" style="stroke: #000000; stroke-width: 0.8"/>
      </g>
     </g>
     <g id="text_12">
      <!-- $\mathdefault{10^{-2}}$ -->
      <g transform="translate(20.878125 150.180367) scale(0.1 -0.1)">
       <use xlink:href="#DejaVuSans-31" transform="translate(0 0.765625)"/>
       <use xlink:href="#DejaVuSans-30" transform="translate(63.623047 0.765625)"/>
       <use xlink:href="#DejaVuSans-2212" transform="translate(128.203125 39.046875) scale(0.7)"/>
       <use xlink:href="#DejaVuSans-32" transform="translate(186.855469 39.046875) scale(0.7)"/>
      </g>
     </g>
    </g>
    <g id="ytick_5">
     <g id="line2d_23">
      <path d="M 51.378125 98.654574
L 430.981071 98.654574
" clip-path="url(#pdee735c823)" style="fill: none; stroke: #b0b0b0; stroke-opacity: 0.22; stroke-width: 0.8; stroke-linecap: square"/>
     </g>
     <g id="line2d_24">
      <g>
       <use xlink:href="#mcaf33d2c7f" x="51.378125" y="98.654574" style="stroke: #000000; stroke-width: 0.8"/>
      </g>
     </g>
     <g id="text_13">
      <!-- $\mathdefault{10^{-1}}$ -->
      <g transform="translate(20.878125 102.453793) scale(0.1 -0.1)">
       <use xlink:href="#DejaVuSans-31" transform="translate(0 0.684375)"/>
       <use xlink:href="#DejaVuSans-30" transform="translate(63.623047 0.684375)"/>
       <use xlink:href="#DejaVuSans-2212" transform="translate(128.203125 38.965625) scale(0.7)"/>
       <use xlink:href="#DejaVuSans-31" transform="translate(186.855469 38.965625) scale(0.7)"/>
      </g>
     </g>
    </g>
    <g id="ytick_6">
     <g id="line2d_25">
      <path d="M 51.378125 50.928
L 430.981071 50.928
" clip-path="url(#pdee735c823)" style="fill: none; stroke: #b0b0b0; stroke-opacity: 0.22; stroke-width: 0.8; stroke-linecap: square"/>
     </g>
     <g id="line2d_26">
      <g>
       <use xlink:href="#mcaf33d2c7f" x="51.378125" y="50.928" style="stroke: #000000; stroke-width: 0.8"/>
      </g>
     </g>
     <g id="text_14">
      <!-- $\mathdefault{10^{0}}$ -->
      <g transform="translate(26.778125 54.727219) scale(0.1 -0.1)">
       <use xlink:href="#DejaVuSans-31" transform="translate(0 0.765625)"/>
       <use xlink:href="#DejaVuSans-30" transform="translate(63.623047 0.765625)"/>
       <use xlink:href="#DejaVuSans-30" transform="translate(128.203125 39.046875) scale(0.7)"/>
      </g>
     </g>
    </g>
    <g id="ytick_7">
     <g id="line2d_27">
      <path d="M 51.378125 303.928
L 430.981071 303.928
" clip-path="url(#pdee735c823)" style="fill: none; stroke: #b0b0b0; stroke-opacity: 0.22; stroke-width: 0.8; stroke-linecap: square"/>
     </g>
     <g id="line2d_28">
      <defs>
       <path id="m7f2f105219" d="M 0 0
L -2 0
" style="stroke: #000000; stroke-width: 0.6"/>
      </defs>
      <g>
       <use xlink:href="#m7f2f105219" x="51.378125" y="303.928" style="stroke: #000000; stroke-width: 0.6"/>
      </g>
     </g>
    </g>
    <g id="ytick_8">
     <g id="line2d_29">
      <path d="M 51.378125 300.14895
L 430.981071 300.14895
" clip-path="url(#pdee735c823)" style="fill: none; stroke: #b0b0b0; stroke-opacity: 0.22; stroke-width: 0.8; stroke-linecap: square"/>
     </g>
     <g id="line2d_30">
      <g>
       <use xlink:href="#m7f2f105219" x="51.378125" y="300.14895" style="stroke: #000000; stroke-width: 0.6"/>
      </g>
     </g>
    </g>
    <g id="ytick_9">
     <g id="line2d_31">
      <path d="M 51.378125 296.95381
L 430.981071 296.95381
" clip-path="url(#pdee735c823)" style="fill: none; stroke: #b0b0b0; stroke-opacity: 0.22; stroke-width: 0.8; stroke-linecap: square"/>
     </g>
     <g id="line2d_32">
      <g>
       <use xlink:href="#m7f2f105219" x="51.378125" y="296.95381" style="stroke: #000000; stroke-width: 0.6"/>
      </g>
     </g>
    </g>
    <g id="ytick_10">
     <g id="line2d_33">
      <path d="M 51.378125 294.186053
L 430.981071 294.186053
" clip-path="url(#pdee735c823)" style="fill: none; stroke: #b0b0b0; stroke-opacity: 0.22; stroke-width: 0.8; stroke-linecap: square"/>
     </g>
     <g id="line2d_34">
      <g>
       <use xlink:href="#m7f2f105219" x="51.378125" y="294.186053" style="stroke: #000000; stroke-width: 0.6"/>
      </g>
     </g>
    </g>
    <g id="ytick_11">
     <g id="line2d_35">
      <path d="M 51.378125 291.744718
L 430.981071 291.744718
" clip-path="url(#pdee735c823)" style="fill: none; stroke: #b0b0b0; stroke-opacity: 0.22; stroke-width: 0.8; stroke-linecap: square"/>
     </g>
     <g id="line2d_36">
      <g>
       <use xlink:href="#m7f2f105219" x="51.378125" y="291.744718" style="stroke: #000000; stroke-width: 0.6"/>
      </g>
     </g>
    </g>
    <g id="ytick_12">
     <g id="line2d_37">
      <path d="M 51.378125 275.193739
L 430.981071 275.193739
" clip-path="url(#pdee735c823)" style="fill: none; stroke: #b0b0b0; stroke-opacity: 0.22; stroke-width: 0.8; stroke-linecap: square"/>
     </g>
     <g id="line2d_38">
      <g>
       <use xlink:href="#m7f2f105219" x="51.378125" y="275.193739" style="stroke: #000000; stroke-width: 0.6"/>
      </g>
     </g>
    </g>
    <g id="ytick_13">
     <g id="line2d_39">
      <path d="M 51.378125 266.789507
L 430.981071 266.789507
" clip-path="url(#pdee735c823)" style="fill: none; stroke: #b0b0b0; stroke-opacity: 0.22; stroke-width: 0.8; stroke-linecap: square"/>
     </g>
     <g id="line2d_40">
      <g>
       <use xlink:href="#m7f2f105219" x="51.378125" y="266.789507" style="stroke: #000000; stroke-width: 0.6"/>
      </g>
     </g>
    </g>
    <g id="ytick_14">
     <g id="line2d_41">
      <path d="M 51.378125 260.826609
L 430.981071 260.826609
" clip-path="url(#pdee735c823)" style="fill: none; stroke: #b0b0b0; stroke-opacity: 0.22; stroke-width: 0.8; stroke-linecap: square"/>
     </g>
     <g id="line2d_42">
      <g>
       <use xlink:href="#m7f2f105219" x="51.378125" y="260.826609" style="stroke: #000000; stroke-width: 0.6"/>
      </g>
     </g>
    </g>
    <g id="ytick_15">
     <g id="line2d_43">
      <path d="M 51.378125 256.201426
L 430.981071 256.201426
" clip-path="url(#pdee735c823)" style="fill: none; stroke: #b0b0b0; stroke-opacity: 0.22; stroke-width: 0.8; stroke-linecap: square"/>
     </g>
     <g id="line2d_44">
      <g>
       <use xlink:href="#m7f2f105219" x="51.378125" y="256.201426" style="stroke: #000000; stroke-width: 0.6"/>
      </g>
     </g>
    </g>
    <g id="ytick_16">
     <g id="line2d_45">
      <path d="M 51.378125 252.422376
L 430.981071 252.422376
" clip-path="url(#pdee735c823)" style="fill: none; stroke: #b0b0b0; stroke-opacity: 0.22; stroke-width: 0.8; stroke-linecap: square"/>
     </g>
     <g id="line2d_46">
      <g>
       <use xlink:href="#m7f2f105219" x="51.378125" y="252.422376" style="stroke: #000000; stroke-width: 0.6"/>
      </g>
     </g>
    </g>
    <g id="ytick_17">
     <g id="line2d_47">
      <path d="M 51.378125 249.227236
L 430.981071 249.227236
" clip-path="url(#pdee735c823)" style="fill: none; stroke: #b0b0b0; stroke-opacity: 0.22; stroke-width: 0.8; stroke-linecap: square"/>
     </g>
     <g id="line2d_48">
      <g>
       <use xlink:href="#m7f2f105219" x="51.378125" y="249.227236" style="stroke: #000000; stroke-width: 0.6"/>
      </g>
     </g>
    </g>
    <g id="ytick_18">
     <g id="line2d_49">
      <path d="M 51.378125 246.459479
L 430.981071 246.459479
" clip-path="url(#pdee735c823)" style="fill: none; stroke: #b0b0b0; stroke-opacity: 0.22; stroke-width: 0.8; stroke-linecap: square"/>
     </g>
     <g id="line2d_50">
      <g>
       <use xlink:href="#m7f2f105219" x="51.378125" y="246.459479" style="stroke: #000000; stroke-width: 0.6"/>
      </g>
     </g>
    </g>
    <g id="ytick_19">
     <g id="line2d_51">
      <path d="M 51.378125 244.018144
L 430.981071 244.018144
" clip-path="url(#pdee735c823)" style="fill: none; stroke: #b0b0b0; stroke-opacity: 0.22; stroke-width: 0.8; stroke-linecap: square"/>
     </g>
     <g id="line2d_52">
      <g>
       <use xlink:href="#m7f2f105219" x="51.378125" y="244.018144" style="stroke: #000000; stroke-width: 0.6"/>
      </g>
     </g>
    </g>
    <g id="ytick_20">
     <g id="line2d_53">
      <path d="M 51.378125 227.467165
L 430.981071 227.467165
" clip-path="url(#pdee735c823)" style="fill: none; stroke: #b0b0b0; stroke-opacity: 0.22; stroke-width: 0.8; stroke-linecap: square"/>
     </g>
     <g id="line2d_54">
      <g>
       <use xlink:href="#m7f2f105219" x="51.378125" y="227.467165" style="stroke: #000000; stroke-width: 0.6"/>
      </g>
     </g>
    </g>
    <g id="ytick_21">
     <g id="line2d_55">
      <path d="M 51.378125 219.062933
L 430.981071 219.062933
" clip-path="url(#pdee735c823)" style="fill: none; stroke: #b0b0b0; stroke-opacity: 0.22; stroke-width: 0.8; stroke-linecap: square"/>
     </g>
     <g id="line2d_56">
      <g>
       <use xlink:href="#m7f2f105219" x="51.378125" y="219.062933" style="stroke: #000000; stroke-width: 0.6"/>
      </g>
     </g>
    </g>
    <g id="ytick_22">
     <g id="line2d_57">
      <path d="M 51.378125 213.100035
L 430.981071 213.100035
" clip-path="url(#pdee735c823)" style="fill: none; stroke: #b0b0b0; stroke-opacity: 0.22; stroke-width: 0.8; stroke-linecap: square"/>
     </g>
     <g id="line2d_58">
      <g>
       <use xlink:href="#m7f2f105219" x="51.378125" y="213.100035" style="stroke: #000000; stroke-width: 0.6"/>
      </g>
     </g>
    </g>
    <g id="ytick_23">
     <g id="line2d_59">
      <path d="M 51.378125 208.474852
L 430.981071 208.474852
" clip-path="url(#pdee735c823)" style="fill: none; stroke: #b0b0b0; stroke-opacity: 0.22; stroke-width: 0.8; stroke-linecap: square"/>
     </g>
     <g id="line2d_60">
      <g>
       <use xlink:href="#m7f2f105219" x="51.378125" y="208.474852" style="stroke: #000000; stroke-width: 0.6"/>
      </g>
     </g>
    </g>
    <g id="ytick_24">
     <g id="line2d_61">
      <path d="M 51.378125 204.695803
L 430.981071 204.695803
" clip-path="url(#pdee735c823)" style="fill: none; stroke: #b0b0b0; stroke-opacity: 0.22; stroke-width: 0.8; stroke-linecap: square"/>
     </g>
     <g id="line2d_62">
      <g>
       <use xlink:href="#m7f2f105219" x="51.378125" y="204.695803" style="stroke: #000000; stroke-width: 0.6"/>
      </g>
     </g>
    </g>
    <g id="ytick_25">
     <g id="line2d_63">
      <path d="M 51.378125 201.500662
L 430.981071 201.500662
" clip-path="url(#pdee735c823)" style="fill: none; stroke: #b0b0b0; stroke-opacity: 0.22; stroke-width: 0.8; stroke-linecap: square"/>
     </g>
     <g id="line2d_64">
      <g>
       <use xlink:href="#m7f2f105219" x="51.378125" y="201.500662" style="stroke: #000000; stroke-width: 0.6"/>
      </g>
     </g>
    </g>
    <g id="ytick_26">
     <g id="line2d_65">
      <path d="M 51.378125 198.732905
L 430.981071 198.732905
" clip-path="url(#pdee735c823)" style="fill: none; stroke: #b0b0b0; stroke-opacity: 0.22; stroke-width: 0.8; stroke-linecap: square"/>
     </g>
     <g id="line2d_66">
      <g>
       <use xlink:href="#m7f2f105219" x="51.378125" y="198.732905" style="stroke: #000000; stroke-width: 0.6"/>
      </g>
     </g>
    </g>
    <g id="ytick_27">
     <g id="line2d_67">
      <path d="M 51.378125 196.29157
L 430.981071 196.29157
" clip-path="url(#pdee735c823)" style="fill: none; stroke: #b0b0b0; stroke-opacity: 0.22; stroke-width: 0.8; stroke-linecap: square"/>
     </g>
     <g id="line2d_68">
      <g>
       <use xlink:href="#m7f2f105219" x="51.378125" y="196.29157" style="stroke: #000000; stroke-width: 0.6"/>
      </g>
     </g>
    </g>
    <g id="ytick_28">
     <g id="line2d_69">
      <path d="M 51.378125 179.740591
L 430.981071 179.740591
" clip-path="url(#pdee735c823)" style="fill: none; stroke: #b0b0b0; stroke-opacity: 0.22; stroke-width: 0.8; stroke-linecap: square"/>
     </g>
     <g id="line2d_70">
      <g>
       <use xlink:href="#m7f2f105219" x="51.378125" y="179.740591" style="stroke: #000000; stroke-width: 0.6"/>
      </g>
     </g>
    </g>
    <g id="ytick_29">
     <g id="line2d_71">
      <path d="M 51.378125 171.336359
L 430.981071 171.336359
" clip-path="url(#pdee735c823)" style="fill: none; stroke: #b0b0b0; stroke-opacity: 0.22; stroke-width: 0.8; stroke-linecap: square"/>
     </g>
     <g id="line2d_72">
      <g>
       <use xlink:href="#m7f2f105219" x="51.378125" y="171.336359" style="stroke: #000000; stroke-width: 0.6"/>
      </g>
     </g>
    </g>
    <g id="ytick_30">
     <g id="line2d_73">
      <path d="M 51.378125 165.373461
L 430.981071 165.373461
" clip-path="url(#pdee735c823)" style="fill: none; stroke: #b0b0b0; stroke-opacity: 0.22; stroke-width: 0.8; stroke-linecap: square"/>
     </g>
     <g id="line2d_74">
      <g>
       <use xlink:href="#m7f2f105219" x="51.378125" y="165.373461" style="stroke: #000000; stroke-width: 0.6"/>
      </g>
     </g>
    </g>
    <g id="ytick_31">
     <g id="line2d_75">
      <path d="M 51.378125 160.748278
L 430.981071 160.748278
" clip-path="url(#pdee735c823)" style="fill: none; stroke: #b0b0b0; stroke-opacity: 0.22; stroke-width: 0.8; stroke-linecap: square"/>
     </g>
     <g id="line2d_76">
      <g>
       <use xlink:href="#m7f2f105219" x="51.378125" y="160.748278" style="stroke: #000000; stroke-width: 0.6"/>
      </g>
     </g>
    </g>
    <g id="ytick_32">
     <g id="line2d_77">
      <path d="M 51.378125 156.969229
L 430.981071 156.969229
" clip-path="url(#pdee735c823)" style="fill: none; stroke: #b0b0b0; stroke-opacity: 0.22; stroke-width: 0.8; stroke-linecap: square"/>
     </g>
     <g id="line2d_78">
      <g>
       <use xlink:href="#m7f2f105219" x="51.378125" y="156.969229" style="stroke: #000000; stroke-width: 0.6"/>
      </g>
     </g>
    </g>
    <g id="ytick_33">
     <g id="line2d_79">
      <path d="M 51.378125 153.774088
L 430.981071 153.774088
" clip-path="url(#pdee735c823)" style="fill: none; stroke: #b0b0b0; stroke-opacity: 0.22; stroke-width: 0.8; stroke-linecap: square"/>
     </g>
     <g id="line2d_80">
      <g>
       <use xlink:href="#m7f2f105219" x="51.378125" y="153.774088" style="stroke: #000000; stroke-width: 0.6"/>
      </g>
     </g>
    </g>
    <g id="ytick_34">
     <g id="line2d_81">
      <path d="M 51.378125 151.006331
L 430.981071 151.006331
" clip-path="url(#pdee735c823)" style="fill: none; stroke: #b0b0b0; stroke-opacity: 0.22; stroke-width: 0.8; stroke-linecap: square"/>
     </g>
     <g id="line2d_82">
      <g>
       <use xlink:href="#m7f2f105219" x="51.378125" y="151.006331" style="stroke: #000000; stroke-width: 0.6"/>
      </g>
     </g>
    </g>
    <g id="ytick_35">
     <g id="line2d_83">
      <path d="M 51.378125 148.564996
L 430.981071 148.564996
" clip-path="url(#pdee735c823)" style="fill: none; stroke: #b0b0b0; stroke-opacity: 0.22; stroke-width: 0.8; stroke-linecap: square"/>
     </g>
     <g id="line2d_84">
      <g>
       <use xlink:href="#m7f2f105219" x="51.378125" y="148.564996" style="stroke: #000000; stroke-width: 0.6"/>
      </g>
     </g>
    </g>
    <g id="ytick_36">
     <g id="line2d_85">
      <path d="M 51.378125 132.014018
L 430.981071 132.014018
" clip-path="url(#pdee735c823)" style="fill: none; stroke: #b0b0b0; stroke-opacity: 0.22; stroke-width: 0.8; stroke-linecap: square"/>
     </g>
     <g id="line2d_86">
      <g>
       <use xlink:href="#m7f2f105219" x="51.378125" y="132.014018" style="stroke: #000000; stroke-width: 0.6"/>
      </g>
     </g>
    </g>
    <g id="ytick_37">
     <g id="line2d_87">
      <path d="M 51.378125 123.609785
L 430.981071 123.609785
" clip-path="url(#pdee735c823)" style="fill: none; stroke: #b0b0b0; stroke-opacity: 0.22; stroke-width: 0.8; stroke-linecap: square"/>
     </g>
     <g id="line2d_88">
      <g>
       <use xlink:href="#m7f2f105219" x="51.378125" y="123.609785" style="stroke: #000000; stroke-width: 0.6"/>
      </g>
     </g>
    </g>
    <g id="ytick_38">
     <g id="line2d_89">
      <path d="M 51.378125 117.646887
L 430.981071 117.646887
" clip-path="url(#pdee735c823)" style="fill: none; stroke: #b0b0b0; stroke-opacity: 0.22; stroke-width: 0.8; stroke-linecap: square"/>
     </g>
     <g id="line2d_90">
      <g>
       <use xlink:href="#m7f2f105219" x="51.378125" y="117.646887" style="stroke: #000000; stroke-width: 0.6"/>
      </g>
     </g>
    </g>
    <g id="ytick_39">
     <g id="line2d_91">
      <path d="M 51.378125 113.021704
L 430.981071 113.021704
" clip-path="url(#pdee735c823)" style="fill: none; stroke: #b0b0b0; stroke-opacity: 0.22; stroke-width: 0.8; stroke-linecap: square"/>
     </g>
     <g id="line2d_92">
      <g>
       <use xlink:href="#m7f2f105219" x="51.378125" y="113.021704" style="stroke: #000000; stroke-width: 0.6"/>
      </g>
     </g>
    </g>
    <g id="ytick_40">
     <g id="line2d_93">
      <path d="M 51.378125 109.242655
L 430.981071 109.242655
" clip-path="url(#pdee735c823)" style="fill: none; stroke: #b0b0b0; stroke-opacity: 0.22; stroke-width: 0.8; stroke-linecap: square"/>
     </g>
     <g id="line2d_94">
      <g>
       <use xlink:href="#m7f2f105219" x="51.378125" y="109.242655" style="stroke: #000000; stroke-width: 0.6"/>
      </g>
     </g>
    </g>
    <g id="ytick_41">
     <g id="line2d_95">
      <path d="M 51.378125 106.047514
L 430.981071 106.047514
" clip-path="url(#pdee735c823)" style="fill: none; stroke: #b0b0b0; stroke-opacity: 0.22; stroke-width: 0.8; stroke-linecap: square"/>
     </g>
     <g id="line2d_96">
      <g>
       <use xlink:href="#m7f2f105219" x="51.378125" y="106.047514" style="stroke: #000000; stroke-width: 0.6"/>
      </g>
     </g>
    </g>
    <g id="ytick_42">
     <g id="line2d_97">
      <path d="M 51.378125 103.279757
L 430.981071 103.279757
" clip-path="url(#pdee735c823)" style="fill: none; stroke: #b0b0b0; stroke-opacity: 0.22; stroke-width: 0.8; stroke-linecap: square"/>
     </g>
     <g id="line2d_98">
      <g>
       <use xlink:href="#m7f2f105219" x="51.378125" y="103.279757" style="stroke: #000000; stroke-width: 0.6"/>
      </g>
     </g>
    </g>
    <g id="ytick_43">
     <g id="line2d_99">
      <path d="M 51.378125 100.838422
L 430.981071 100.838422
" clip-path="url(#pdee735c823)" style="fill: none; stroke: #b0b0b0; stroke-opacity: 0.22; stroke-width: 0.8; stroke-linecap: square"/>
     </g>
     <g id="line2d_100">
      <g>
       <use xlink:href="#m7f2f105219" x="51.378125" y="100.838422" style="stroke: #000000; stroke-width: 0.6"/>
      </g>
     </g>
    </g>
    <g id="ytick_44">
     <g id="line2d_101">
      <path d="M 51.378125 84.287444
L 430.981071 84.287444
" clip-path="url(#pdee735c823)" style="fill: none; stroke: #b0b0b0; stroke-opacity: 0.22; stroke-width: 0.8; stroke-linecap: square"/>
     </g>
     <g id="line2d_102">
      <g>
       <use xlink:href="#m7f2f105219" x="51.378125" y="84.287444" style="stroke: #000000; stroke-width: 0.6"/>
      </g>
     </g>
    </g>
    <g id="ytick_45">
     <g id="line2d_103">
      <path d="M 51.378125 75.883211
L 430.981071 75.883211
" clip-path="url(#pdee735c823)" style="fill: none; stroke: #b0b0b0; stroke-opacity: 0.22; stroke-width: 0.8; stroke-linecap: square"/>
     </g>
     <g id="line2d_104">
      <g>
       <use xlink:href="#m7f2f105219" x="51.378125" y="75.883211" style="stroke: #000000; stroke-width: 0.6"/>
      </g>
     </g>
    </g>
    <g id="ytick_46">
     <g id="line2d_105">
      <path d="M 51.378125 69.920313
L 430.981071 69.920313
" clip-path="url(#pdee735c823)" style="fill: none; stroke: #b0b0b0; stroke-opacity: 0.22; stroke-width: 0.8; stroke-linecap: square"/>
     </g>
     <g id="line2d_106">
      <g>
       <use xlink:href="#m7f2f105219" x="51.378125" y="69.920313" style="stroke: #000000; stroke-width: 0.6"/>
      </g>
     </g>
    </g>
    <g id="ytick_47">
     <g id="line2d_107">
      <path d="M 51.378125 65.29513
L 430.981071 65.29513
" clip-path="url(#pdee735c823)" style="fill: none; stroke: #b0b0b0; stroke-opacity: 0.22; stroke-width: 0.8; stroke-linecap: square"/>
     </g>
     <g id="line2d_108">
      <g>
       <use xlink:href="#m7f2f105219" x="51.378125" y="65.29513" style="stroke: #000000; stroke-width: 0.6"/>
      </g>
     </g>
    </g>
    <g id="ytick_48">
     <g id="line2d_109">
      <path d="M 51.378125 61.516081
L 430.981071 61.516081
" clip-path="url(#pdee735c823)" style="fill: none; stroke: #b0b0b0; stroke-opacity: 0.22; stroke-width: 0.8; stroke-linecap: square"/>
     </g>
     <g id="line2d_110">
      <g>
       <use xlink:href="#m7f2f105219" x="51.378125" y="61.516081" style="stroke: #000000; stroke-width: 0.6"/>
      </g>
     </g>
    </g>
    <g id="ytick_49">
     <g id="line2d_111">
      <path d="M 51.378125 58.32094
L 430.981071 58.32094
" clip-path="url(#pdee735c823)" style="fill: none; stroke: #b0b0b0; stroke-opacity: 0.22; stroke-width: 0.8; stroke-linecap: square"/>
     </g>
     <g id="line2d_112">
      <g>
       <use xlink:href="#m7f2f105219" x="51.378125" y="58.32094" style="stroke: #000000; stroke-width: 0.6"/>
      </g>
     </g>
    </g>
    <g id="ytick_50">
     <g id="line2d_113">
      <path d="M 51.378125 55.553183
L 430.981071 55.553183
" clip-path="url(#pdee735c823)" style="fill: none; stroke: #b0b0b0; stroke-opacity: 0.22; stroke-width: 0.8; stroke-linecap: square"/>
     </g>
     <g id="line2d_114">
      <g>
       <use xlink:href="#m7f2f105219" x="51.378125" y="55.553183" style="stroke: #000000; stroke-width: 0.6"/>
      </g>
     </g>
    </g>
    <g id="ytick_51">
     <g id="line2d_115">
      <path d="M 51.378125 53.111848
L 430.981071 53.111848
" clip-path="url(#pdee735c823)" style="fill: none; stroke: #b0b0b0; stroke-opacity: 0.22; stroke-width: 0.8; stroke-linecap: square"/>
     </g>
     <g id="line2d_116">
      <g>
       <use xlink:href="#m7f2f105219" x="51.378125" y="53.111848" style="stroke: #000000; stroke-width: 0.6"/>
      </g>
     </g>
    </g>
    <g id="text_15">
     <!-- Empirical survival probability -->
     <g transform="translate(14.798438 250.111594) rotate(-90) scale(0.1 -0.1)">
      <defs>
       <path id="DejaVuSans-45" d="M 628 4666
L 3578 4666
L 3578 4134
L 1259 4134
L 1259 2753
L 3481 2753
L 3481 2222
L 1259 2222
L 1259 531
L 3634 531
L 3634 0
L 628 0
L 628 4666
z
" transform="scale(0.015625)"/>
       <path id="DejaVuSans-6d" d="M 3328 2828
Q 3544 3216 3844 3400
Q 4144 3584 4550 3584
Q 5097 3584 5394 3201
Q 5691 2819 5691 2113
L 5691 0
L 5113 0
L 5113 2094
Q 5113 2597 4934 2840
Q 4756 3084 4391 3084
Q 3944 3084 3684 2787
Q 3425 2491 3425 1978
L 3425 0
L 2847 0
L 2847 2094
Q 2847 2600 2669 2842
Q 2491 3084 2119 3084
Q 1678 3084 1418 2786
Q 1159 2488 1159 1978
L 1159 0
L 581 0
L 581 3500
L 1159 3500
L 1159 2956
Q 1356 3278 1631 3431
Q 1906 3584 2284 3584
Q 2666 3584 2933 3390
Q 3200 3197 3328 2828
z
" transform="scale(0.015625)"/>
       <path id="DejaVuSans-70" d="M 1159 525
L 1159 -1331
L 581 -1331
L 581 3500
L 1159 3500
L 1159 2969
Q 1341 3281 1617 3432
Q 1894 3584 2278 3584
Q 2916 3584 3314 3078
Q 3713 2572 3713 1747
Q 3713 922 3314 415
Q 2916 -91 2278 -91
Q 1894 -91 1617 61
Q 1341 213 1159 525
z
M 3116 1747
Q 3116 2381 2855 2742
Q 2594 3103 2138 3103
Q 1681 3103 1420 2742
Q 1159 2381 1159 1747
Q 1159 1113 1420 752
Q 1681 391 2138 391
Q 2594 391 2855 752
Q 3116 1113 3116 1747
z
" transform="scale(0.015625)"/>
       <path id="DejaVuSans-69" d="M 603 3500
L 1178 3500
L 1178 0
L 603 0
L 603 3500
z
M 603 4863
L 1178 4863
L 1178 4134
L 603 4134
L 603 4863
z
" transform="scale(0.015625)"/>
       <path id="DejaVuSans-72" d="M 2631 2963
Q 2534 3019 2420 3045
Q 2306 3072 2169 3072
Q 1681 3072 1420 2755
Q 1159 2438 1159 1844
L 1159 0
L 581 0
L 581 3500
L 1159 3500
L 1159 2956
Q 1341 3275 1631 3429
Q 1922 3584 2338 3584
Q 2397 3584 2469 3576
Q 2541 3569 2628 3553
L 2631 2963
z
" transform="scale(0.015625)"/>
       <path id="DejaVuSans-63" d="M 3122 3366
L 3122 2828
Q 2878 2963 2633 3030
Q 2388 3097 2138 3097
Q 1578 3097 1268 2742
Q 959 2388 959 1747
Q 959 1106 1268 751
Q 1578 397 2138 397
Q 2388 397 2633 464
Q 2878 531 3122 666
L 3122 134
Q 2881 22 2623 -34
Q 2366 -91 2075 -91
Q 1284 -91 818 406
Q 353 903 353 1747
Q 353 2603 823 3093
Q 1294 3584 2113 3584
Q 2378 3584 2631 3529
Q 2884 3475 3122 3366
z
" transform="scale(0.015625)"/>
       <path id="DejaVuSans-61" d="M 2194 1759
Q 1497 1759 1228 1600
Q 959 1441 959 1056
Q 959 750 1161 570
Q 1363 391 1709 391
Q 2188 391 2477 730
Q 2766 1069 2766 1631
L 2766 1759
L 2194 1759
z
M 3341 1997
L 3341 0
L 2766 0
L 2766 531
Q 2569 213 2275 61
Q 1981 -91 1556 -91
Q 1019 -91 701 211
Q 384 513 384 1019
Q 384 1609 779 1909
Q 1175 2209 1959 2209
L 2766 2209
L 2766 2266
Q 2766 2663 2505 2880
Q 2244 3097 1772 3097
Q 1472 3097 1187 3025
Q 903 2953 641 2809
L 641 3341
Q 956 3463 1253 3523
Q 1550 3584 1831 3584
Q 2591 3584 2966 3190
Q 3341 2797 3341 1997
z
" transform="scale(0.015625)"/>
       <path id="DejaVuSans-6c" d="M 603 4863
L 1178 4863
L 1178 0
L 603 0
L 603 4863
z
" transform="scale(0.015625)"/>
       <path id="DejaVuSans-20" transform="scale(0.015625)"/>
       <path id="DejaVuSans-73" d="M 2834 3397
L 2834 2853
Q 2591 2978 2328 3040
Q 2066 3103 1784 3103
Q 1356 3103 1142 2972
Q 928 2841 928 2578
Q 928 2378 1081 2264
Q 1234 2150 1697 2047
L 1894 2003
Q 2506 1872 2764 1633
Q 3022 1394 3022 966
Q 3022 478 2636 193
Q 2250 -91 1575 -91
Q 1294 -91 989 -36
Q 684 19 347 128
L 347 722
Q 666 556 975 473
Q 1284 391 1588 391
Q 1994 391 2212 530
Q 2431 669 2431 922
Q 2431 1156 2273 1281
Q 2116 1406 1581 1522
L 1381 1569
Q 847 1681 609 1914
Q 372 2147 372 2553
Q 372 3047 722 3315
Q 1072 3584 1716 3584
Q 2034 3584 2315 3537
Q 2597 3491 2834 3397
z
" transform="scale(0.015625)"/>
       <path id="DejaVuSans-75" d="M 544 1381
L 544 3500
L 1119 3500
L 1119 1403
Q 1119 906 1312 657
Q 1506 409 1894 409
Q 2359 409 2629 706
Q 2900 1003 2900 1516
L 2900 3500
L 3475 3500
L 3475 0
L 2900 0
L 2900 538
Q 2691 219 2414 64
Q 2138 -91 1772 -91
Q 1169 -91 856 284
Q 544 659 544 1381
z
M 1991 3584
L 1991 3584
z
" transform="scale(0.015625)"/>
       <path id="DejaVuSans-76" d="M 191 3500
L 800 3500
L 1894 563
L 2988 3500
L 3597 3500
L 2284 0
L 1503 0
L 191 3500
z
" transform="scale(0.015625)"/>
       <path id="DejaVuSans-6f" d="M 1959 3097
Q 1497 3097 1228 2736
Q 959 2375 959 1747
Q 959 1119 1226 758
Q 1494 397 1959 397
Q 2419 397 2687 759
Q 2956 1122 2956 1747
Q 2956 2369 2687 2733
Q 2419 3097 1959 3097
z
M 1959 3584
Q 2709 3584 3137 3096
Q 3566 2609 3566 1747
Q 3566 888 3137 398
Q 2709 -91 1959 -91
Q 1206 -91 779 398
Q 353 888 353 1747
Q 353 2609 779 3096
Q 1206 3584 1959 3584
z
" transform="scale(0.015625)"/>
       <path id="DejaVuSans-62" d="M 3116 1747
Q 3116 2381 2855 2742
Q 2594 3103 2138 3103
Q 1681 3103 1420 2742
Q 1159 2381 1159 1747
Q 1159 1113 1420 752
Q 1681 391 2138 391
Q 2594 391 2855 752
Q 3116 1113 3116 1747
z
M 1159 2969
Q 1341 3281 1617 3432
Q 1894 3584 2278 3584
Q 2916 3584 3314 3078
Q 3713 2572 3713 1747
Q 3713 922 3314 415
Q 2916 -91 2278 -91
Q 1894 -91 1617 61
Q 1341 213 1159 525
L 1159 0
L 581 0
L 581 4863
L 1159 4863
L 1159 2969
z
" transform="scale(0.015625)"/>
       <path id="DejaVuSans-74" d="M 1172 4494
L 1172 3500
L 2356 3500
L 2356 3053
L 1172 3053
L 1172 1153
Q 1172 725 1289 603
Q 1406 481 1766 481
L 2356 481
L 2356 0
L 1766 0
Q 1100 0 847 248
Q 594 497 594 1153
L 594 3053
L 172 3053
L 172 3500
L 594 3500
L 594 4494
L 1172 4494
z
" transform="scale(0.015625)"/>
       <path id="DejaVuSans-79" d="M 2059 -325
Q 1816 -950 1584 -1140
Q 1353 -1331 966 -1331
L 506 -1331
L 506 -850
L 844 -850
Q 1081 -850 1212 -737
Q 1344 -625 1503 -206
L 1606 56
L 191 3500
L 800 3500
L 1894 763
L 2988 3500
L 3597 3500
L 2059 -325
z
" transform="scale(0.015625)"/>
      </defs>
      <use xlink:href="#DejaVuSans-45"/>
      <use xlink:href="#DejaVuSans-6d" transform="translate(63.183594 0)"/>
      <use xlink:href="#DejaVuSans-70" transform="translate(160.595703 0)"/>
      <use xlink:href="#DejaVuSans-69" transform="translate(224.072266 0)"/>
      <use xlink:href="#DejaVuSans-72" transform="translate(251.855469 0)"/>
      <use xlink:href="#DejaVuSans-69" transform="translate(292.96875 0)"/>
      <use xlink:href="#DejaVuSans-63" transform="translate(320.751953 0)"/>
      <use xlink:href="#DejaVuSans-61" transform="translate(375.732422 0)"/>
      <use xlink:href="#DejaVuSans-6c" transform="translate(437.011719 0)"/>
      <use xlink:href="#DejaVuSans-20" transform="translate(464.794922 0)"/>
      <use xlink:href="#DejaVuSans-73" transform="translate(496.582031 0)"/>
      <use xlink:href="#DejaVuSans-75" transform="translate(548.681641 0)"/>
      <use xlink:href="#DejaVuSans-72" transform="translate(612.060547 0)"/>
      <use xlink:href="#DejaVuSans-76" transform="translate(653.173828 0)"/>
      <use xlink:href="#DejaVuSans-69" transform="translate(712.353516 0)"/>
      <use xlink:href="#DejaVuSans-76" transform="translate(740.136719 0)"/>
      <use xlink:href="#DejaVuSans-61" transform="translate(799.316406 0)"/>
      <use xlink:href="#DejaVuSans-6c" transform="translate(860.595703 0)"/>
      <use xlink:href="#DejaVuSans-20" transform="translate(888.378906 0)"/>
      <use xlink:href="#DejaVuSans-70" transform="translate(920.166016 0)"/>
      <use xlink:href="#DejaVuSans-72" transform="translate(983.642578 0)"/>
      <use xlink:href="#DejaVuSans-6f" transform="translate(1022.505859 0)"/>
      <use xlink:href="#DejaVuSans-62" transform="translate(1083.6875 0)"/>
      <use xlink:href="#DejaVuSans-61" transform="translate(1147.164062 0)"/>
      <use xlink:href="#DejaVuSans-62" transform="translate(1208.443359 0)"/>
      <use xlink:href="#DejaVuSans-69" transform="translate(1271.919922 0)"/>
      <use xlink:href="#DejaVuSans-6c" transform="translate(1299.703125 0)"/>
      <use xlink:href="#DejaVuSans-69" transform="translate(1327.486328 0)"/>
      <use xlink:href="#DejaVuSans-74" transform="translate(1355.269531 0)"/>
      <use xlink:href="#DejaVuSans-79" transform="translate(1394.478516 0)"/>
     </g>
    </g>
   </g>
   <g id="line2d_117">
    <path d="M 68.632804 50.928
L 68.632804 54.775896
L 69.97108 54.891011
L 69.97108 64.374446
L 73.992627 64.485775
L 73.992627 76.17054
L 80.717819 76.282934
L 80.717819 89.699469
L 90.181303 89.834466
L 90.181303 102.261063
L 102.433112 102.409594
L 102.433112 111.414991
L 117.540326 111.569013
L 117.540326 115.381327
L 118.776514 115.567977
L 118.776514 115.946398
L 119.345013 116.042092
L 126.570612 116.527306
L 126.570612 116.625727
L 127.270581 117.226272
L 127.88645 117.430384
L 127.88645 117.533199
L 128.300269 117.740371
L 128.300269 118.161032
L 128.87651 118.374609
L 128.87651 118.91838
L 130.152244 119.139947
L 130.152244 119.251625
L 130.321632 119.476803
L 131.466223 119.704454
L 131.466223 119.819223
L 131.582398 120.050687
L 131.582398 120.167396
L 133.701663 120.284765
L 133.701663 120.521517
L 133.960043 120.761004
L 133.960043 120.881794
L 134.47282 121.003291
L 134.47282 121.372115
L 135.123691 121.49653
L 135.123691 122.388991
L 135.299849 122.6512
L 135.299849 123.050841
L 135.589461 123.185785
L 135.589461 124.877605
L 136.704028 125.025027
L 136.704028 125.173505
L 137.560732 125.323054
L 137.560732 125.778285
L 138.11573 126.087424
L 138.11573 126.24374
L 138.446159 126.401244
L 138.465804 126.881066
L 138.717798 127.043507
L 138.815699 127.538612
L 139.178368 127.70631
L 139.23726 128.045832
L 139.23726 128.391009
L 139.845387 128.565777
L 139.935585 128.742032
L 140.229563 128.919798
L 140.229563 129.099102
L 140.870332 129.27997
L 142.398388 129.462431
L 142.398388 129.646512
L 143.653186 130.019652
L 143.653186 130.78671
L 144.320793 130.982994
L 144.320793 131.181154
L 144.889292 131.381227
L 145.058681 131.58325
L 146.041298 132.201409
L 146.177948 132.411627
L 146.819141 132.624
L 146.819141 132.838571
L 147.268771 133.719783
L 150.121418 133.946067
L 150.121418 134.174848
L 150.723486 134.406183
L 150.723486 134.640129
L 151.753054 134.876745
L 151.774681 135.116094
L 152.176857 135.35824
L 152.852779 135.603247
L 152.950799 136.102125
L 153.24248 136.35614
L 153.24248 136.613307
L 153.774417 136.873705
L 154.032798 137.137416
L 156.422992 137.675121
L 156.46798 137.949297
L 156.689785 138.227148
L 156.689785 139.083774
L 156.899948 139.377368
L 157.896982 139.977334
L 158.538558 140.595186
L 158.576476 140.911158
L 158.966327 141.232022
L 159.176438 141.557931
L 159.814561 141.889047
L 160.191015 142.567581
L 160.667971 142.915364
L 160.667971 143.269083
L 161.013517 143.628942
L 162.005819 143.99516
L 162.108593 144.367965
L 163.105011 144.747598
L 163.388371 145.528383
L 164.262077 146.339734
L 164.562636 147.184144
L 165.389666 147.619609
L 165.648635 148.06442
L 167.105971 148.518986
L 168.09242 149.945746
L 168.595398 150.444024
L 169.404004 150.954577
L 169.865073 151.478024
L 172.285547 152.015033
L 173.415118 152.566325
L 174.967691 153.132683
L 175.444647 153.714951
L 176.267765 154.31405
L 176.6204 154.930982
L 177.121175 155.566842
L 178.016932 156.222826
L 178.528528 156.900252
L 179.249192 157.600568
L 180.450753 158.325376
L 180.97794 159.076451
L 182.72417 160.665534
L 184.193333 161.508227
L 185.244528 162.386637
L 188.57886 164.263701
L 190.017493 165.270082
L 190.933945 166.327832
L 192.095636 167.442476
L 194.203749 168.620485
L 196.903958 169.869501
L 198.420476 171.198635
L 200.951158 172.618874
L 202.065245 174.143634
L 203.896892 175.789529
L 206.87528 177.577481
L 209.135544 179.534347
L 213.512312 181.695405
L 219.754675 184.108288
L 221.945934 186.839521
L 225.768001 189.986063
L 229.802859 193.697265
L 234.293298 198.221091
L 252.195727 212.088742
L 269.537397 225.491634
L 367.266722 289.56087
L 367.266722 289.56087
" clip-path="url(#pdee735c823)" style="fill: none; stroke: #167d9a; stroke-width: 1.8; stroke-linecap: square"/>
   </g>
   <g id="line2d_118">
    <path d="M 68.632804 50.928
L 68.632804 54.810863
L 69.97108 54.926173
L 69.97108 64.414138
L 73.992627 64.525681
L 73.992627 76.311128
L 80.717819 76.424288
L 80.717819 89.888712
L 90.181303 90.024952
L 90.181303 102.963498
L 102.433112 103.117168
L 102.433112 112.121254
L 117.540326 112.280634
L 117.540326 116.234817
L 118.776514 116.42935
L 118.776514 116.823982
L 120.963268 117.124965
L 125.508805 117.328077
L 125.508805 117.430384
L 126.702082 117.636526
L 126.702082 117.740371
L 126.960463 117.949635
L 126.960463 118.055064
L 128.300269 118.590409
L 128.300269 119.028868
L 128.87651 119.251625
L 128.87651 119.819223
L 130.152244 119.934632
L 130.152244 120.167396
L 130.321632 120.284765
L 131.116149 120.402803
L 131.116149 120.521517
L 131.466223 120.640915
L 131.466223 120.881794
L 131.582398 121.125505
L 133.701663 121.248443
L 133.701663 121.372115
L 133.960043 121.621696
L 133.960043 121.747622
L 134.47282 121.874318
L 134.47282 122.25912
L 135.123691 122.388991
L 135.123691 123.458339
L 135.299849 123.734524
L 135.299849 124.155827
L 135.589461 124.298186
L 135.623918 126.24374
L 137.251708 126.559954
L 137.560732 126.719888
L 137.560732 127.043507
L 138.08361 127.207231
L 138.11573 127.372259
L 138.446159 127.538612
L 138.465804 128.045832
L 138.717798 128.217702
L 138.815699 128.919798
L 139.178368 129.099102
L 139.23726 129.462431
L 139.23726 130.019652
L 139.935585 130.208772
L 139.935585 130.399633
L 140.229563 130.592268
L 140.229563 130.78671
L 142.398388 131.381227
L 142.398388 131.58325
L 142.623499 131.787261
L 143.653186 131.9933
L 143.653186 132.411627
L 144.320793 132.624
L 144.320793 132.838571
L 144.441496 133.055387
L 145.44574 133.495943
L 145.779345 133.719783
L 146.041298 134.174848
L 146.819141 134.406183
L 146.819141 134.640129
L 147.268771 135.35824
L 147.770955 135.603247
L 147.870839 135.851185
L 150.121418 136.102125
L 150.723486 136.35614
L 150.723486 136.613307
L 151.753054 136.873705
L 152.873873 137.675121
L 152.950799 138.227148
L 153.24248 138.508775
L 153.24248 138.794281
L 153.774417 139.083774
L 154.032798 139.377368
L 156.422992 139.67518
L 156.46798 139.977334
L 156.689785 140.283958
L 156.689785 140.911158
L 156.899948 141.232022
L 157.74839 141.557931
L 158.538558 142.225538
L 158.849838 142.567581
L 159.176438 143.269083
L 160.017099 143.628942
L 160.191015 143.99516
L 161.013517 144.747598
L 161.356298 145.134314
L 162.108593 145.528383
L 162.108593 145.930089
L 163.105011 146.339734
L 163.388371 147.184144
L 164.04986 147.619609
L 164.360098 148.518986
L 164.38032 148.983745
L 164.78154 149.459165
L 165.389666 149.945746
L 166.217752 150.444024
L 167.340599 150.954577
L 168.09242 152.015033
L 168.09242 152.566325
L 168.555621 153.132683
L 169.767445 154.31405
L 173.451173 155.566842
L 174.967691 156.222826
L 175.148498 156.900252
L 176.267765 157.600568
L 176.597364 158.325376
L 177.121175 159.076451
L 178.016932 159.855767
L 178.459024 160.665534
L 178.786909 161.508227
L 179.558216 162.386637
L 180.97794 163.303928
L 181.784955 164.263701
L 184.193333 165.270082
L 185.9425 166.327832
L 187.216494 167.442476
L 193.636699 171.198635
L 195.239964 172.618874
L 198.069345 174.143634
L 199.166252 175.789529
L 202.594705 177.577481
L 205.556459 179.534347
L 208.121507 181.695405
L 212.256607 184.108288
L 215.176187 186.839521
L 220.415636 189.986063
L 227.849043 193.697265
L 234.420855 198.221091
L 241.964589 204.016155
L 250.207041 212.088742
L 260.755452 225.491634
L 324.754528 289.56087
L 324.754528 289.56087
" clip-path="url(#pdee735c823)" style="fill: none; stroke: #d55e00; stroke-width: 1.8; stroke-linecap: square"/>
   </g>
   <g id="line2d_119">
    <path d="M 180.450753 160.817212
L 193.89772 170.226008
L 206.760036 179.494204
L 219.622352 189.040929
L 231.900017 198.429378
L 244.177682 208.103743
L 255.870697 217.599658
L 267.563711 227.388173
L 278.672075 236.975211
L 289.780439 246.860581
L 300.304152 256.518208
L 310.827865 266.478646
L 320.766927 276.181415
L 330.705989 286.189878
L 340.645051 296.523925
L 349.999463 306.567088
L 359.353875 316.938134
L 368.123635 326.978427
L 376.893396 337.346412
L 381.1342 342.48425
L 381.1342 342.48425
" clip-path="url(#pdee735c823)" style="fill: none; stroke-dasharray: 6.29,2.72; stroke-dashoffset: 0; stroke: #4d4d4d; stroke-width: 1.7"/>
   </g>
   <g id="patch_3">
    <path d="M 51.378125 303.928
L 51.378125 50.928
" style="fill: none; stroke: #000000; stroke-width: 0.8; stroke-linejoin: miter; stroke-linecap: square"/>
   </g>
   <g id="patch_4">
    <path d="M 430.981071 303.928
L 430.981071 50.928
" style="fill: none; stroke: #000000; stroke-width: 0.8; stroke-linejoin: miter; stroke-linecap: square"/>
   </g>
   <g id="patch_5">
    <path d="M 51.378125 303.928
L 430.981071 303.928
" style="fill: none; stroke: #000000; stroke-width: 0.8; stroke-linejoin: miter; stroke-linecap: square"/>
   </g>
   <g id="patch_6">
    <path d="M 51.378125 50.928
L 430.981071 50.928
" style="fill: none; stroke: #000000; stroke-width: 0.8; stroke-linejoin: miter; stroke-linecap: square"/>
   </g>
   <g id="text_16">
    <!-- m=80, Npar=40 -->
    <g transform="translate(191.754598 44.928) scale(0.12 -0.12)">
     <defs>
      <path id="DejaVuSans-3d" d="M 678 2906
L 4684 2906
L 4684 2381
L 678 2381
L 678 2906
z
M 678 1631
L 4684 1631
L 4684 1100
L 678 1100
L 678 1631
z
" transform="scale(0.015625)"/>
      <path id="DejaVuSans-38" d="M 2034 2216
Q 1584 2216 1326 1975
Q 1069 1734 1069 1313
Q 1069 891 1326 650
Q 1584 409 2034 409
Q 2484 409 2743 651
Q 3003 894 3003 1313
Q 3003 1734 2745 1975
Q 2488 2216 2034 2216
z
M 1403 2484
Q 997 2584 770 2862
Q 544 3141 544 3541
Q 544 4100 942 4425
Q 1341 4750 2034 4750
Q 2731 4750 3128 4425
Q 3525 4100 3525 3541
Q 3525 3141 3298 2862
Q 3072 2584 2669 2484
Q 3125 2378 3379 2068
Q 3634 1759 3634 1313
Q 3634 634 3220 271
Q 2806 -91 2034 -91
Q 1263 -91 848 271
Q 434 634 434 1313
Q 434 1759 690 2068
Q 947 2378 1403 2484
z
M 1172 3481
Q 1172 3119 1398 2916
Q 1625 2713 2034 2713
Q 2441 2713 2670 2916
Q 2900 3119 2900 3481
Q 2900 3844 2670 4047
Q 2441 4250 2034 4250
Q 1625 4250 1398 4047
Q 1172 3844 1172 3481
z
" transform="scale(0.015625)"/>
      <path id="DejaVuSans-2c" d="M 750 794
L 1409 794
L 1409 256
L 897 -744
L 494 -744
L 750 256
L 750 794
z
" transform="scale(0.015625)"/>
      <path id="DejaVuSans-4e" d="M 628 4666
L 1478 4666
L 3547 763
L 3547 4666
L 4159 4666
L 4159 0
L 3309 0
L 1241 3903
L 1241 0
L 628 0
L 628 4666
z
" transform="scale(0.015625)"/>
     </defs>
     <use xlink:href="#DejaVuSans-6d"/>
     <use xlink:href="#DejaVuSans-3d" transform="translate(97.412109 0)"/>
     <use xlink:href="#DejaVuSans-38" transform="translate(181.201172 0)"/>
     <use xlink:href="#DejaVuSans-30" transform="translate(244.824219 0)"/>
     <use xlink:href="#DejaVuSans-2c" transform="translate(308.447266 0)"/>
     <use xlink:href="#DejaVuSans-20" transform="translate(340.234375 0)"/>
     <use xlink:href="#DejaVuSans-4e" transform="translate(372.021484 0)"/>
     <use xlink:href="#DejaVuSans-70" transform="translate(446.826172 0)"/>
     <use xlink:href="#DejaVuSans-61" transform="translate(510.302734 0)"/>
     <use xlink:href="#DejaVuSans-72" transform="translate(571.582031 0)"/>
     <use xlink:href="#DejaVuSans-3d" transform="translate(612.695312 0)"/>
     <use xlink:href="#DejaVuSans-34" transform="translate(696.484375 0)"/>
     <use xlink:href="#DejaVuSans-30" transform="translate(760.107422 0)"/>
    </g>
   </g>
   <g id="legend_1">
    <g id="line2d_120">
     <path d="M 289.757321 61.40675
L 297.757321 61.40675
L 305.757321 61.40675
" style="fill: none; stroke: #167d9a; stroke-width: 1.8; stroke-linecap: square"/>
    </g>
    <g id="text_17">
     <!-- Held-out BRCA permutation -->
     <g transform="translate(312.157321 64.20675) scale(0.08 -0.08)">
      <defs>
       <path id="DejaVuSans-48" d="M 628 4666
L 1259 4666
L 1259 2753
L 3553 2753
L 3553 4666
L 4184 4666
L 4184 0
L 3553 0
L 3553 2222
L 1259 2222
L 1259 0
L 628 0
L 628 4666
z
" transform="scale(0.015625)"/>
       <path id="DejaVuSans-65" d="M 3597 1894
L 3597 1613
L 953 1613
Q 991 1019 1311 708
Q 1631 397 2203 397
Q 2534 397 2845 478
Q 3156 559 3463 722
L 3463 178
Q 3153 47 2828 -22
Q 2503 -91 2169 -91
Q 1331 -91 842 396
Q 353 884 353 1716
Q 353 2575 817 3079
Q 1281 3584 2069 3584
Q 2775 3584 3186 3129
Q 3597 2675 3597 1894
z
M 3022 2063
Q 3016 2534 2758 2815
Q 2500 3097 2075 3097
Q 1594 3097 1305 2825
Q 1016 2553 972 2059
L 3022 2063
z
" transform="scale(0.015625)"/>
       <path id="DejaVuSans-64" d="M 2906 2969
L 2906 4863
L 3481 4863
L 3481 0
L 2906 0
L 2906 525
Q 2725 213 2448 61
Q 2172 -91 1784 -91
Q 1150 -91 751 415
Q 353 922 353 1747
Q 353 2572 751 3078
Q 1150 3584 1784 3584
Q 2172 3584 2448 3432
Q 2725 3281 2906 2969
z
M 947 1747
Q 947 1113 1208 752
Q 1469 391 1925 391
Q 2381 391 2643 752
Q 2906 1113 2906 1747
Q 2906 2381 2643 2742
Q 2381 3103 1925 3103
Q 1469 3103 1208 2742
Q 947 2381 947 1747
z
" transform="scale(0.015625)"/>
       <path id="DejaVuSans-42" d="M 1259 2228
L 1259 519
L 2272 519
Q 2781 519 3026 730
Q 3272 941 3272 1375
Q 3272 1813 3026 2020
Q 2781 2228 2272 2228
L 1259 2228
z
M 1259 4147
L 1259 2741
L 2194 2741
Q 2656 2741 2882 2914
Q 3109 3088 3109 3444
Q 3109 3797 2882 3972
Q 2656 4147 2194 4147
L 1259 4147
z
M 628 4666
L 2241 4666
Q 2963 4666 3353 4366
Q 3744 4066 3744 3513
Q 3744 3084 3544 2831
Q 3344 2578 2956 2516
Q 3422 2416 3680 2098
Q 3938 1781 3938 1306
Q 3938 681 3513 340
Q 3088 0 2303 0
L 628 0
L 628 4666
z
" transform="scale(0.015625)"/>
       <path id="DejaVuSans-52" d="M 2841 2188
Q 3044 2119 3236 1894
Q 3428 1669 3622 1275
L 4263 0
L 3584 0
L 2988 1197
Q 2756 1666 2539 1819
Q 2322 1972 1947 1972
L 1259 1972
L 1259 0
L 628 0
L 628 4666
L 2053 4666
Q 2853 4666 3247 4331
Q 3641 3997 3641 3322
Q 3641 2881 3436 2590
Q 3231 2300 2841 2188
z
M 1259 4147
L 1259 2491
L 2053 2491
Q 2509 2491 2742 2702
Q 2975 2913 2975 3322
Q 2975 3731 2742 3939
Q 2509 4147 2053 4147
L 1259 4147
z
" transform="scale(0.015625)"/>
       <path id="DejaVuSans-43" d="M 4122 4306
L 4122 3641
Q 3803 3938 3442 4084
Q 3081 4231 2675 4231
Q 1875 4231 1450 3742
Q 1025 3253 1025 2328
Q 1025 1406 1450 917
Q 1875 428 2675 428
Q 3081 428 3442 575
Q 3803 722 4122 1019
L 4122 359
Q 3791 134 3420 21
Q 3050 -91 2638 -91
Q 1578 -91 968 557
Q 359 1206 359 2328
Q 359 3453 968 4101
Q 1578 4750 2638 4750
Q 3056 4750 3426 4639
Q 3797 4528 4122 4306
z
" transform="scale(0.015625)"/>
       <path id="DejaVuSans-6e" d="M 3513 2113
L 3513 0
L 2938 0
L 2938 2094
Q 2938 2591 2744 2837
Q 2550 3084 2163 3084
Q 1697 3084 1428 2787
Q 1159 2491 1159 1978
L 1159 0
L 581 0
L 581 3500
L 1159 3500
L 1159 2956
Q 1366 3272 1645 3428
Q 1925 3584 2291 3584
Q 2894 3584 3203 3211
Q 3513 2838 3513 2113
z
" transform="scale(0.015625)"/>
      </defs>
      <use xlink:href="#DejaVuSans-48"/>
      <use xlink:href="#DejaVuSans-65" transform="translate(75.195312 0)"/>
      <use xlink:href="#DejaVuSans-6c" transform="translate(136.71875 0)"/>
      <use xlink:href="#DejaVuSans-64" transform="translate(164.501953 0)"/>
      <use xlink:href="#DejaVuSans-2d" transform="translate(227.978516 0)"/>
      <use xlink:href="#DejaVuSans-6f" transform="translate(265.9375 0)"/>
      <use xlink:href="#DejaVuSans-75" transform="translate(327.119141 0)"/>
      <use xlink:href="#DejaVuSans-74" transform="translate(390.498047 0)"/>
      <use xlink:href="#DejaVuSans-20" transform="translate(429.707031 0)"/>
      <use xlink:href="#DejaVuSans-42" transform="translate(461.494141 0)"/>
      <use xlink:href="#DejaVuSans-52" transform="translate(530.097656 0)"/>
      <use xlink:href="#DejaVuSans-43" transform="translate(594.580078 0)"/>
      <use xlink:href="#DejaVuSans-41" transform="translate(664.404297 0)"/>
      <use xlink:href="#DejaVuSans-20" transform="translate(732.8125 0)"/>
      <use xlink:href="#DejaVuSans-70" transform="translate(764.599609 0)"/>
      <use xlink:href="#DejaVuSans-65" transform="translate(828.076172 0)"/>
      <use xlink:href="#DejaVuSans-72" transform="translate(889.599609 0)"/>
      <use xlink:href="#DejaVuSans-6d" transform="translate(928.962891 0)"/>
      <use xlink:href="#DejaVuSans-75" transform="translate(1026.375 0)"/>
      <use xlink:href="#DejaVuSans-74" transform="translate(1089.753906 0)"/>
      <use xlink:href="#DejaVuSans-61" transform="translate(1128.962891 0)"/>
      <use xlink:href="#DejaVuSans-74" transform="translate(1190.242188 0)"/>
      <use xlink:href="#DejaVuSans-69" transform="translate(1229.451172 0)"/>
      <use xlink:href="#DejaVuSans-6f" transform="translate(1257.234375 0)"/>
      <use xlink:href="#DejaVuSans-6e" transform="translate(1318.416016 0)"/>
     </g>
    </g>
    <g id="line2d_121">
     <path d="M 289.757321 73.14925
L 297.757321 73.14925
L 305.757321 73.14925
" style="fill: none; stroke: #d55e00; stroke-width: 1.8; stroke-linecap: square"/>
    </g>
    <g id="text_18">
     <!-- Canonical rank permutation -->
     <g transform="translate(312.157321 75.94925) scale(0.08 -0.08)">
      <defs>
       <path id="DejaVuSans-6b" d="M 581 4863
L 1159 4863
L 1159 1991
L 2875 3500
L 3609 3500
L 1753 1863
L 3688 0
L 2938 0
L 1159 1709
L 1159 0
L 581 0
L 581 4863
z
" transform="scale(0.015625)"/>
      </defs>
      <use xlink:href="#DejaVuSans-43"/>
      <use xlink:href="#DejaVuSans-61" transform="translate(69.824219 0)"/>
      <use xlink:href="#DejaVuSans-6e" transform="translate(131.103516 0)"/>
      <use xlink:href="#DejaVuSans-6f" transform="translate(194.482422 0)"/>
      <use xlink:href="#DejaVuSans-6e" transform="translate(255.664062 0)"/>
      <use xlink:href="#DejaVuSans-69" transform="translate(319.042969 0)"/>
      <use xlink:href="#DejaVuSans-63" transform="translate(346.826172 0)"/>
      <use xlink:href="#DejaVuSans-61" transform="translate(401.806641 0)"/>
      <use xlink:href="#DejaVuSans-6c" transform="translate(463.085938 0)"/>
      <use xlink:href="#DejaVuSans-20" transform="translate(490.869141 0)"/>
      <use xlink:href="#DejaVuSans-72" transform="translate(522.65625 0)"/>
      <use xlink:href="#DejaVuSans-61" transform="translate(563.769531 0)"/>
      <use xlink:href="#DejaVuSans-6e" transform="translate(625.048828 0)"/>
      <use xlink:href="#DejaVuSans-6b" transform="translate(688.427734 0)"/>
      <use xlink:href="#DejaVuSans-20" transform="translate(746.337891 0)"/>
      <use xlink:href="#DejaVuSans-70" transform="translate(778.125 0)"/>
      <use xlink:href="#DejaVuSans-65" transform="translate(841.601562 0)"/>
      <use xlink:href="#DejaVuSans-72" transform="translate(903.125 0)"/>
      <use xlink:href="#DejaVuSans-6d" transform="translate(942.488281 0)"/>
      <use xlink:href="#DejaVuSans-75" transform="translate(1039.900391 0)"/>
      <use xlink:href="#DejaVuSans-74" transform="translate(1103.279297 0)"/>
      <use xlink:href="#DejaVuSans-61" transform="translate(1142.488281 0)"/>
      <use xlink:href="#DejaVuSans-74" transform="translate(1203.767578 0)"/>
      <use xlink:href="#DejaVuSans-69" transform="translate(1242.976562 0)"/>
      <use xlink:href="#DejaVuSans-6f" transform="translate(1270.759766 0)"/>
      <use xlink:href="#DejaVuSans-6e" transform="translate(1331.941406 0)"/>
     </g>
    </g>
    <g id="line2d_122">
     <path d="M 289.757321 84.89175
L 297.757321 84.89175
L 305.757321 84.89175
" style="fill: none; stroke-dasharray: 6.29,2.72; stroke-dashoffset: 0; stroke: #4d4d4d; stroke-width: 1.7"/>
    </g>
    <g id="text_19">
     <!-- Fitted GPD tail -->
     <g transform="translate(312.157321 87.69175) scale(0.08 -0.08)">
      <defs>
       <path id="DejaVuSans-46" d="M 628 4666
L 3309 4666
L 3309 4134
L 1259 4134
L 1259 2759
L 3109 2759
L 3109 2228
L 1259 2228
L 1259 0
L 628 0
L 628 4666
z
" transform="scale(0.015625)"/>
       <path id="DejaVuSans-47" d="M 3809 666
L 3809 1919
L 2778 1919
L 2778 2438
L 4434 2438
L 4434 434
Q 4069 175 3628 42
Q 3188 -91 2688 -91
Q 1594 -91 976 548
Q 359 1188 359 2328
Q 359 3472 976 4111
Q 1594 4750 2688 4750
Q 3144 4750 3555 4637
Q 3966 4525 4313 4306
L 4313 3634
Q 3963 3931 3569 4081
Q 3175 4231 2741 4231
Q 1884 4231 1454 3753
Q 1025 3275 1025 2328
Q 1025 1384 1454 906
Q 1884 428 2741 428
Q 3075 428 3337 486
Q 3600 544 3809 666
z
" transform="scale(0.015625)"/>
       <path id="DejaVuSans-44" d="M 1259 4147
L 1259 519
L 2022 519
Q 2988 519 3436 956
Q 3884 1394 3884 2338
Q 3884 3275 3436 3711
Q 2988 4147 2022 4147
L 1259 4147
z
M 628 4666
L 1925 4666
Q 3281 4666 3915 4102
Q 4550 3538 4550 2338
Q 4550 1131 3912 565
Q 3275 0 1925 0
L 628 0
L 628 4666
z
" transform="scale(0.015625)"/>
      </defs>
      <use xlink:href="#DejaVuSans-46"/>
      <use xlink:href="#DejaVuSans-69" transform="translate(50.269531 0)"/>
      <use xlink:href="#DejaVuSans-74" transform="translate(78.052734 0)"/>
      <use xlink:href="#DejaVuSans-74" transform="translate(117.261719 0)"/>
      <use xlink:href="#DejaVuSans-65" transform="translate(156.470703 0)"/>
      <use xlink:href="#DejaVuSans-64" transform="translate(217.994141 0)"/>
      <use xlink:href="#DejaVuSans-20" transform="translate(281.470703 0)"/>
      <use xlink:href="#DejaVuSans-47" transform="translate(313.257812 0)"/>
      <use xlink:href="#DejaVuSans-50" transform="translate(390.748047 0)"/>
      <use xlink:href="#DejaVuSans-44" transform="translate(451.050781 0)"/>
      <use xlink:href="#DejaVuSans-20" transform="translate(528.052734 0)"/>
      <use xlink:href="#DejaVuSans-74" transform="translate(559.839844 0)"/>
      <use xlink:href="#DejaVuSans-61" transform="translate(599.048828 0)"/>
      <use xlink:href="#DejaVuSans-69" transform="translate(660.328125 0)"/>
      <use xlink:href="#DejaVuSans-6c" transform="translate(688.111328 0)"/>
     </g>
    </g>
   </g>
  </g>
  <g id="text_20">
   <!-- BRCA100 held-out permutation null vs estimator-matched null -->
   <g transform="translate(31.642634 16.318125) scale(0.12 -0.12)">
    <defs>
     <path id="DejaVuSans-68" d="M 3513 2113
L 3513 0
L 2938 0
L 2938 2094
Q 2938 2591 2744 2837
Q 2550 3084 2163 3084
Q 1697 3084 1428 2787
Q 1159 2491 1159 1978
L 1159 0
L 581 0
L 581 4863
L 1159 4863
L 1159 2956
Q 1366 3272 1645 3428
Q 1925 3584 2291 3584
Q 2894 3584 3203 3211
Q 3513 2838 3513 2113
z
" transform="scale(0.015625)"/>
    </defs>
    <use xlink:href="#DejaVuSans-42"/>
    <use xlink:href="#DejaVuSans-52" transform="translate(68.603516 0)"/>
    <use xlink:href="#DejaVuSans-43" transform="translate(133.085938 0)"/>
    <use xlink:href="#DejaVuSans-41" transform="translate(202.910156 0)"/>
    <use xlink:href="#DejaVuSans-31" transform="translate(271.318359 0)"/>
    <use xlink:href="#DejaVuSans-30" transform="translate(334.941406 0)"/>
    <use xlink:href="#DejaVuSans-30" transform="translate(398.564453 0)"/>
    <use xlink:href="#DejaVuSans-20" transform="translate(462.1875 0)"/>
    <use xlink:href="#DejaVuSans-68" transform="translate(493.974609 0)"/>
    <use xlink:href="#DejaVuSans-65" transform="translate(557.353516 0)"/>
    <use xlink:href="#DejaVuSans-6c" transform="translate(618.876953 0)"/>
    <use xlink:href="#DejaVuSans-64" transform="translate(646.660156 0)"/>
    <use xlink:href="#DejaVuSans-2d" transform="translate(710.136719 0)"/>
    <use xlink:href="#DejaVuSans-6f" transform="translate(748.095703 0)"/>
    <use xlink:href="#DejaVuSans-75" transform="translate(809.277344 0)"/>
    <use xlink:href="#DejaVuSans-74" transform="translate(872.65625 0)"/>
    <use xlink:href="#DejaVuSans-20" transform="translate(911.865234 0)"/>
    <use xlink:href="#DejaVuSans-70" transform="translate(943.652344 0)"/>
    <use xlink:href="#DejaVuSans-65" transform="translate(1007.128906 0)"/>
    <use xlink:href="#DejaVuSans-72" transform="translate(1068.652344 0)"/>
    <use xlink:href="#DejaVuSans-6d" transform="translate(1108.015625 0)"/>
    <use xlink:href="#DejaVuSans-75" transform="translate(1205.427734 0)"/>
    <use xlink:href="#DejaVuSans-74" transform="translate(1268.806641 0)"/>
    <use xlink:href="#DejaVuSans-61" transform="translate(1308.015625 0)"/>
    <use xlink:href="#DejaVuSans-74" transform="translate(1369.294922 0)"/>
    <use xlink:href="#DejaVuSans-69" transform="translate(1408.503906 0)"/>
    <use xlink:href="#DejaVuSans-6f" transform="translate(1436.287109 0)"/>
    <use xlink:href="#DejaVuSans-6e" transform="translate(1497.46875 0)"/>
    <use xlink:href="#DejaVuSans-20" transform="translate(1560.847656 0)"/>
    <use xlink:href="#DejaVuSans-6e" transform="translate(1592.634766 0)"/>
    <use xlink:href="#DejaVuSans-75" transform="translate(1656.013672 0)"/>
    <use xlink:href="#DejaVuSans-6c" transform="translate(1719.392578 0)"/>
    <use xlink:href="#DejaVuSans-6c" transform="translate(1747.175781 0)"/>
    <use xlink:href="#DejaVuSans-20" transform="translate(1774.958984 0)"/>
    <use xlink:href="#DejaVuSans-76" transform="translate(1806.746094 0)"/>
    <use xlink:href="#DejaVuSans-73" transform="translate(1865.925781 0)"/>
    <use xlink:href="#DejaVuSans-20" transform="translate(1918.025391 0)"/>
    <use xlink:href="#DejaVuSans-65" transform="translate(1949.8125 0)"/>
    <use xlink:href="#DejaVuSans-73" transform="translate(2011.335938 0)"/>
    <use xlink:href="#DejaVuSans-74" transform="translate(2063.435547 0)"/>
    <use xlink:href="#DejaVuSans-69" transform="translate(2102.644531 0)"/>
    <use xlink:href="#DejaVuSans-6d" transform="translate(2130.427734 0)"/>
    <use xlink:href="#DejaVuSans-61" transform="translate(2227.839844 0)"/>
    <use xlink:href="#DejaVuSans-74" transform="translate(2289.119141 0)"/>
    <use xlink:href="#DejaVuSans-6f" transform="translate(2328.328125 0)"/>
    <use xlink:href="#DejaVuSans-72" transform="translate(2389.509766 0)"/>
    <use xlink:href="#DejaVuSans-2d" transform="translate(2424.248047 0)"/>
    <use xlink:href="#DejaVuSans-6d" transform="translate(2460.332031 0)"/>
    <use xlink:href="#DejaVuSans-61" transform="translate(2557.744141 0)"/>
    <use xlink:href="#DejaVuSans-74" transform="translate(2619.023438 0)"/>
    <use xlink:href="#DejaVuSans-63" transform="translate(2658.232422 0)"/>
    <use xlink:href="#DejaVuSans-68" transform="translate(2713.212891 0)"/>
    <use xlink:href="#DejaVuSans-65" transform="translate(2776.591797 0)"/>
    <use xlink:href="#DejaVuSans-64" transform="translate(2838.115234 0)"/>
    <use xlink:href="#DejaVuSans-20" transform="translate(2901.591797 0)"/>
    <use xlink:href="#DejaVuSans-6e" transform="translate(2933.378906 0)"/>
    <use xlink:href="#DejaVuSans-75" transform="translate(2996.757812 0)"/>
    <use xlink:href="#DejaVuSans-6c" transform="translate(3060.136719 0)"/>
    <use xlink:href="#DejaVuSans-6c" transform="translate(3087.919922 0)"/>
   </g>
  </g>
 </g>
 <defs>
  <clipPath id="pdee735c823">
   <rect x="51.378125" y="50.928" width="379.602946" height="253"/>
  </clipPath>
 </defs>
</svg>
